<svg xmlns="http://www.w3.org/2000/svg" width="300.000000pt" height="234.000000pt" viewBox="0 0 300.000000 234.000000" preserveAspectRatio="xMidYMid meet"><metadata>
Created by potrace 1.10, written by Peter Selinger 2001-2011
</metadata><g transform="translate(0.000000,234.000000) scale(0.100000,-0.100000)" fill="#000000" stroke="none"><path d="M1498 2134 c-141 -26 -240 -89 -320 -207 -43 -63 -95 -96 -153 -97 -76 -1 -82 -9 -50 -64 15 -25 22 -46 16 -46 -6 0 -22 22 -36 49 l-25 50 -40 -16 c-22 -9 -40 -19 -40 -24 0 -4 -9 -5 -19 -2 -52 14 -79 -46 -44 -97 l17 -25 -22 19 c-12 11 -24 17 -26 15 -8 -10 -39 -74 -51 -109 -13 -38 -13 -39 18 -63 45 -33 67 -43 33 -14 l-28 24 20 44 c11 24 27 53 35 64 13 16 17 17 31 6 9 -8 14 -16 11 -19 -3 -3 2 -13 10 -23 15 -15 13 -22 -13 -77 l-30 -61 24 -16 c15 -10 24 -11 24 -4 0 6 9 24 21 40 21 29 21 31 3 52 l-19 22 22 -18 c21 -18 49 -15 37 4 -3 5 -9 7 -14 4 -4 -3 -13 2 -20 10 -7 8 -9 15 -4 15 4 0 -3 11 -16 25 -13 14 -19 25 -14 25 6 0 25 -16 44 -35 33 -34 63 -39 38 -7 -11 15 -11 15 3 4 9 -7 21 -11 27 -10 5 2 27 -13 48 -32 21 -19 44 -35 51 -36 16 -3 39 24 52 61 l11 30 -20 -25 -20 -25 -1 25 c-1 21 -3 19 -13 -12 l-11 -38 -40 27 c-40 27 -40 27 -15 34 20 6 15 7 -20 8 -43 1 -108 26 -140 53 -48 40 -63 95 -34 119 14 11 31 8 111 -20 52 -18 97 -30 100 -28 2 3 -5 23 -16 46 -12 22 -21 46 -21 53 1 7 14 -12 29 -42 16 -30 27 -58 25 -61 -2 -3 8 -11 21 -17 23 -11 24 -10 15 13 -5 13 -19 43 -30 66 -34 65 -16 56 19 -11 30 -55 51 -70 51 -35 0 25 68 158 107 209 53 69 131 130 199 156 81 30 205 43 295 30 81 -12 98 -8 44 10 -49 16 -168 18 -247 4z m-408 -357 c0 -7 -4 -6 -10 3 -6 10 -10 11 -10 3 0 -7 -4 -13 -10 -13 -5 0 -10 9 -10 20 0 18 3 19 20 10 11 -6 20 -16 20 -23z"></path><path d="M958 2125 c-3 -3 -15 -8 -28 -10 -12 -2 -28 -10 -36 -16 -8 -7 -17 -10 -20 -7 -8 9 -127 -58 -130 -73 -1 -8 -6 -23 -10 -34 -5 -12 9 -4 37 23 24 23 49 42 56 42 6 0 29 10 50 22 29 16 19 4 -43 -54 -114 -108 -187 -219 -226 -343 -5 -16 -11 -78 -13 -137 -4 -87 -2 -107 10 -112 8 -3 15 -12 15 -21 0 -8 5 -15 11 -15 6 0 7 8 3 23 -5 12 -9 34 -9 50 -1 15 -5 30 -8 34 -13 13 -7 25 10 19 15 -6 14 -4 -2 14 -17 19 -17 26 -6 83 7 34 14 71 15 82 9 49 79 170 130 221 12 12 47 48 78 80 76 78 117 114 128 114 6 0 10 5 10 10 0 11 -13 13 -22 5z"></path><path d="M647 2095 c-67 -18 -155 -61 -200 -97 -44 -35 -56 -32 -31 9 l17 28 -28 -27 -29 -28 37 -38 38 -39 68 67 c37 37 97 83 132 103 69 40 69 42 -4 22z m-167 -125 c-28 -39 -35 -43 -50 -25 -15 18 -15 17 25 38 44 23 49 21 25 -13z"></path><path d="M1725 2090 c3 -5 15 -10 25 -10 10 0 56 -14 102 -31 116 -42 118 -43 118 -30 0 7 -5 9 -12 5 -7 -5 -9 -2 -6 7 4 10 -1 15 -15 16 -11 1 -25 7 -31 13 -8 8 6 10 55 5 67 -6 205 -38 217 -50 9 -9 -24 -59 -48 -71 -31 -17 -100 2 -100 27 0 11 -4 19 -10 19 -5 0 -7 -7 -4 -15 5 -11 -9 -9 -55 10 -34 13 -61 19 -61 14 0 -5 5 -9 10 -9 6 0 29 -12 53 -27 23 -14 71 -34 108 -43 l66 -17 36 61 35 61 -29 13 c-53 22 -168 42 -307 52 -167 12 -154 12 -147 0z"></path><path d="M2260 2062 c0 -5 34 -26 76 -47 54 -26 98 -58 149 -109 60 -60 178 -208 224 -281 10 -17 11 -10 7 44 -4 36 -13 75 -21 87 -8 13 -16 41 -18 62 -2 29 -15 53 -46 91 -24 28 -47 51 -53 51 -5 0 -24 11 -42 25 -18 14 -38 25 -45 25 -7 0 -26 7 -44 16 -28 15 -144 44 -174 44 -7 0 -13 -4 -13 -8z m180 -47 c50 -16 150 -88 190 -135 44 -52 48 -63 24 -53 -17 6 -19 14 32 -103 26 -61 11 -58 -33 8 -22 35 -59 83 -80 108 -22 25 -52 64 -67 88 -17 28 -41 49 -71 63 -64 30 -61 46 5 24z"></path><path d="M2187 1964 c-42 -71 -43 -74 -22 -74 18 0 48 56 39 72 -4 6 -3 8 3 5 6 -4 10 1 9 10 0 10 6 19 15 20 22 5 144 -65 197 -113 42 -37 44 -42 31 -60 -19 -26 -49 -23 -98 9 -22 15 -43 27 -46 27 -3 0 -23 11 -45 25 -27 17 -40 32 -40 48 0 19 -3 18 -21 -12 -11 -18 -19 -34 -17 -35 2 -2 33 -16 69 -33 37 -17 84 -47 105 -66 l39 -35 50 45 c48 44 49 45 28 61 -78 64 -137 104 -194 135 l-66 35 -36 -64z"></path><path d="M690 1985 c-37 -38 -53 -45 -43 -17 3 9 -9 1 -26 -18 -17 -19 -31 -40 -31 -46 0 -5 -15 -27 -34 -47 -19 -20 -30 -40 -25 -43 5 -3 7 -17 4 -32 -4 -24 -3 -23 13 8 70 137 84 162 88 158 2 -3 -3 -21 -11 -41 -8 -21 -11 -37 -6 -37 5 0 11 6 14 13 2 7 28 40 57 75 56 67 56 85 0 27z"></path><path d="M1453 2005 c-96 -30 -187 -105 -249 -206 -19 -31 -34 -61 -34 -67 0 -6 -4 -12 -10 -14 -6 -2 -6 -8 0 -18 8 -13 10 -13 10 1 0 9 11 29 25 45 14 16 25 34 25 40 0 15 45 56 53 47 21 -21 -2 -93 -31 -94 -13 0 -12 -2 4 -9 17 -7 24 -21 29 -58 6 -47 -2 -148 -12 -138 -5 4 -43 -30 -43 -39 0 -3 7 -5 15 -5 8 0 15 7 15 16 0 12 6 15 23 10 66 -18 70 -19 63 -7 -4 6 -17 11 -29 11 -22 0 -22 1 -22 186 1 112 5 188 11 192 5 4 31 22 56 40 26 17 51 32 55 32 5 0 7 -64 5 -142 -4 -152 5 -205 34 -194 8 3 13 2 9 -3 -3 -5 1 -11 7 -14 10 -3 8 -10 -6 -25 -10 -12 -22 -19 -26 -17 -5 3 -10 -18 -12 -46 -3 -47 -1 -52 23 -65 65 -33 135 -148 143 -235 2 -30 5 -56 6 -59 1 -3 2 -16 3 -30 0 -24 0 -24 4 -2 4 20 7 21 21 10 16 -12 16 -11 1 7 -9 11 -19 45 -23 75 -9 76 -45 145 -111 213 -54 57 -66 77 -44 77 5 0 8 4 5 9 -8 12 32 61 49 61 8 0 18 -7 23 -16 17 -31 32 -4 30 54 l-2 57 -3 -52 c-4 -53 -15 -68 -27 -36 -4 9 -2 21 4 27 5 5 9 42 8 81 l-2 70 -5 -70 c-7 -79 -19 -89 -64 -51 -27 22 -28 26 -30 130 -2 85 1 109 13 116 10 7 11 10 3 10 -7 0 -13 11 -13 25 0 33 41 53 122 62 l63 6 -27 -26 c-16 -14 -28 -31 -28 -37 0 -7 10 -9 28 -6 15 3 58 10 95 15 63 9 73 8 128 -16 32 -14 59 -32 59 -39 0 -8 6 -11 17 -7 13 5 15 2 10 -12 -6 -14 -5 -16 6 -7 20 17 27 5 27 -47 0 -58 -11 -75 -40 -66 -22 7 -23 17 -6 70 3 11 -2 3 -11 -17 -15 -32 -22 -36 -42 -31 -21 5 -23 3 -17 -13 4 -10 10 -33 13 -50 4 -27 2 -33 -17 -39 -14 -4 -25 -2 -30 5 -6 9 -9 9 -12 -1 -3 -8 -8 -11 -11 -8 -4 3 6 53 22 112 16 59 25 104 20 101 -5 -3 -9 -13 -9 -23 0 -9 -4 -21 -9 -26 -5 -6 -17 -45 -26 -88 -9 -42 -21 -80 -26 -83 -15 -9 -10 -37 6 -30 8 3 22 -3 32 -12 16 -16 15 -17 -13 -23 -20 -5 -23 -7 -9 -9 15 -1 12 -5 -14 -17 -19 -8 -43 -15 -53 -16 -10 -1 -27 -10 -36 -21 -16 -20 -16 -20 1 -7 9 7 17 9 17 4 0 -10 41 -10 58 1 5 3 18 -1 28 -9 16 -12 17 -14 3 -15 -9 0 -22 -7 -29 -15 -7 -8 -17 -15 -23 -15 -6 0 -2 7 9 15 10 8 14 15 7 15 -28 0 -38 -46 -12 -53 10 -3 17 -1 13 4 -3 5 1 6 9 3 8 -3 19 6 27 23 8 15 16 31 17 34 2 3 -8 11 -23 18 -33 15 -29 19 50 45 64 22 64 22 36 33 -23 9 -28 8 -23 -3 9 -23 -7 -16 -37 16 l-27 29 73 3 73 3 -20 25 c-18 22 -19 23 -9 3 7 -15 7 -23 1 -23 -6 0 -13 12 -17 28 -3 15 -9 37 -14 50 -12 27 -13 27 55 -2 l55 -25 0 57 c0 50 2 58 19 58 11 0 18 -3 16 -7 -3 -3 17 -21 43 -39 26 -18 53 -40 60 -48 11 -14 12 -14 12 2 0 20 -15 36 -100 100 -91 70 -198 123 -304 150 -108 29 -169 31 -233 11z"></path><path d="M352 1943 c-29 -43 -69 -132 -87 -195 -9 -32 -23 -71 -31 -87 -8 -16 -17 -54 -19 -83 -5 -55 -2 -55 11 -3 l7 30 7 -30 c6 -24 8 -18 9 28 1 63 18 104 83 200 31 45 35 56 19 48 -26 -14 -26 -8 0 46 23 47 30 51 49 28 14 -17 12 -29 -25 -110 -32 -71 -29 -69 25 14 l40 62 -32 39 c-17 22 -33 40 -34 40 -1 0 -11 -12 -22 -27z"></path><path d="M1500 1932 l-45 -24 45 7 c52 8 53 9 48 27 -2 10 -14 7 -48 -10z"></path><path d="M2050 1895 c7 -11 20 -25 28 -32 7 -6 15 -17 16 -25 3 -19 34 -76 46 -83 12 -7 -8 52 -28 83 -13 20 -13 25 -1 34 11 8 11 9 -3 5 -9 -3 -29 4 -45 16 -25 19 -27 20 -13 2z"></path><path d="M820 1883 c-44 -31 -61 -47 -82 -81 -16 -26 -18 -36 -9 -45 16 -16 33 11 24 38 -5 17 -4 18 10 7 13 -11 16 -10 22 7 3 11 24 36 45 55 41 37 34 50 -10 19z"></path><path d="M2150 1810 c24 -44 35 -55 53 -53 20 3 21 2 5 -11 -10 -7 -18 -17 -18 -21 0 -5 9 0 20 10 11 10 18 21 16 24 -3 4 11 16 30 29 l34 22 0 -66 0 -66 55 7 c30 3 55 4 55 0 0 -3 -9 -24 -21 -46 -11 -23 -18 -43 -15 -46 2 -3 23 -9 45 -14 34 -7 46 -6 73 11 43 26 60 25 28 -1 l-25 -20 35 17 35 18 -37 14 c-33 13 -38 19 -38 47 0 28 -16 92 -26 104 -2 2 -13 -4 -23 -13 -18 -17 -18 -19 -3 -49 10 -18 21 -34 25 -36 10 -4 -22 -41 -36 -41 -5 0 -4 7 3 15 10 12 10 15 -3 15 -10 0 -13 6 -10 21 6 20 3 21 -51 17 l-56 -4 0 68 0 68 -55 -36 -55 -35 -18 32 c-9 17 -25 41 -35 53 -10 11 -4 -4 13 -34z m310 -217 c0 -11 -7 -13 -32 -8 -42 9 -58 23 -39 34 19 12 71 -7 71 -26z"></path><path d="M489 1827 c8 -10 10 -21 5 -26 -5 -4 -31 -25 -57 -46 -51 -41 -127 -140 -151 -196 -14 -33 -13 -34 15 -51 36 -22 39 -22 39 -4 0 28 73 152 126 214 30 35 54 69 54 76 0 7 -10 21 -22 32 -20 16 -21 17 -9 1z"></path><path d="M2486 1811 c-16 -18 -15 -22 21 -79 21 -33 43 -68 48 -77 9 -15 15 -16 33 -6 18 10 20 15 11 39 -12 32 -82 142 -90 142 -3 0 -14 -8 -23 -19z"></path><path d="M1555 1760 c-4 -23 -5 -44 -2 -46 3 -3 8 13 12 36 4 23 5 44 2 46 -3 3 -8 -13 -12 -36z"></path><path d="M1951 1740 c0 -14 3 -32 9 -40 15 -24 18 -7 4 30 -11 31 -13 32 -13 10z"></path><path d="M700 1725 c-6 -16 -12 -38 -13 -49 -1 -12 -5 -23 -9 -26 -9 -7 -14 -88 -6 -96 4 -3 10 11 14 32 4 22 16 63 26 92 14 38 17 57 9 65 -7 7 -13 2 -21 -18z"></path><path d="M2106 1735 c4 -9 16 -21 28 -27 19 -10 19 -9 -3 16 -28 30 -33 32 -25 11z"></path><path d="M479 1683 c-17 -51 -14 -183 6 -229 19 -46 19 -48 -2 -40 -10 4 -4 -4 12 -18 17 -13 30 -29 30 -35 0 -6 16 -28 36 -49 50 -52 57 -67 31 -60 -43 12 -21 -7 26 -22 26 -8 47 -19 47 -25 1 -16 77 -95 92 -95 7 0 12 -3 12 -7 -1 -5 -1 -25 0 -47 1 -33 9 -46 55 -91 l55 -52 6 40 c5 29 3 43 -8 54 -13 14 -17 13 -29 -11 l-14 -27 -25 19 c-21 17 -24 29 -24 81 0 52 -3 62 -20 67 -38 13 -204 196 -238 264 -31 63 -32 69 -32 192 0 71 -1 128 -2 128 -1 0 -7 -17 -14 -37z m401 -700 c0 -10 -4 -25 -10 -33 -8 -12 -10 -12 -16 3 -7 20 1 47 16 47 5 0 10 -8 10 -17z"></path><path d="M1570 1671 c0 -29 2 -32 13 -20 6 8 19 20 27 28 13 12 13 13 -4 7 -12 -4 -23 -1 -28 6 -5 8 -8 0 -8 -21z"></path><path d="M1630 1690 c0 -5 14 -10 30 -10 23 0 30 -5 30 -19 0 -13 -15 -25 -50 -39 -27 -12 -50 -26 -50 -33 0 -8 4 -8 13 -2 6 6 34 16 60 23 45 12 48 15 42 39 -3 14 -13 32 -22 39 -20 14 -53 16 -53 2z"></path><path d="M1120 1643 c0 -7 16 -34 35 -59 40 -51 40 -67 4 -72 -13 -2 -31 -10 -39 -17 -8 -7 -22 -15 -30 -18 -8 -3 -3 -6 13 -6 18 -1 27 4 27 14 0 8 5 15 11 15 5 0 7 -5 4 -10 -4 -6 10 -2 29 7 20 10 36 21 36 24 0 3 -15 25 -32 49 -18 24 -39 52 -45 64 -7 12 -13 15 -13 9z"></path><path d="M2580 1629 l-25 -20 33 16 c17 8 32 18 32 20 0 10 -16 4 -40 -16z"></path><path d="M2335 1610 c-15 -17 -16 -20 -3 -20 9 0 18 9 21 20 3 11 4 20 3 20 -2 0 -11 -9 -21 -20z"></path><path d="M1998 1609 c-57 -13 -151 -64 -192 -103 -21 -19 -48 -42 -62 -50 -30 -21 -32 -40 -1 -31 18 5 17 3 -8 -15 -20 -15 -23 -20 -10 -16 19 6 19 5 3 -7 -10 -8 -14 -18 -10 -22 4 -5 -2 -5 -12 -1 -16 5 -17 4 -6 -9 10 -12 8 -16 -10 -23 -20 -8 -21 -9 -6 -15 23 -9 36 -1 36 22 0 22 50 71 51 50 1 -8 4 -3 8 11 4 14 13 24 19 23 7 -2 11 2 9 9 -4 20 36 21 51 2 12 -15 14 -16 9 -2 -4 12 2 18 21 23 15 3 35 8 45 11 13 4 10 -5 -15 -41 -27 -38 -34 -43 -40 -28 -4 13 -7 8 -7 -17 -1 -38 0 -37 53 38 l38 53 70 -2 c86 -3 165 -37 232 -101 46 -45 57 -76 36 -108 -8 -12 -10 -8 -11 15 -1 17 -1 33 0 38 0 4 -15 7 -34 7 -54 0 -76 -60 -26 -73 23 -6 47 25 36 43 -3 6 -2 10 3 10 37 0 -1 -154 -51 -209 -13 -15 -29 -39 -37 -55 -35 -70 -125 -138 -200 -152 -22 -5 -19 0 20 37 27 24 40 43 33 46 -7 2 -26 -12 -44 -31 -17 -20 -37 -36 -45 -36 -21 0 -17 14 11 40 l24 23 -39 31 c-45 35 -83 87 -110 149 -22 50 -32 97 -20 97 4 0 11 -17 15 -37 4 -20 15 -54 26 -75 24 -47 113 -138 134 -138 9 0 14 -4 11 -8 -8 -13 76 -8 101 6 12 7 37 26 55 43 l33 30 -59 -35 c-93 -56 -138 -47 -220 45 -41 46 -76 121 -76 166 0 7 -5 13 -11 13 -9 0 -22 26 -43 84 -6 19 -7 19 -24 2 -12 -14 -14 -20 -4 -23 6 -3 12 -11 12 -19 0 -8 6 -14 14 -14 9 0 15 -16 18 -49 5 -49 62 -181 79 -181 5 0 9 -6 9 -14 0 -8 6 -16 13 -19 8 -3 6 -11 -9 -26 l-21 -22 34 -37 c136 -148 164 -410 60 -561 -17 -24 -30 -50 -30 -57 0 -7 -3 -12 -6 -10 -3 2 -22 -9 -41 -25 -40 -34 -35 -37 17 -9 21 11 47 20 58 20 11 0 27 5 35 11 12 8 9 9 -12 5 -37 -8 -43 7 -15 41 23 28 47 80 64 137 6 20 19 33 39 39 42 14 42 15 -1 53 -25 22 -35 37 -28 40 9 4 10 11 3 24 -8 15 -3 24 25 48 l34 31 -45 26 c-24 14 -42 30 -38 36 3 5 23 -4 44 -21 39 -31 55 -36 64 -21 9 13 -82 63 -102 57 -10 -4 -22 1 -29 13 -10 16 -5 20 43 40 29 13 52 26 51 29 -2 8 82 88 98 93 6 2 9 7 7 12 -1 4 3 7 9 7 5 0 7 5 4 10 -3 6 -1 10 4 10 6 0 18 18 27 40 9 22 20 40 25 40 5 0 6 6 4 13 -6 15 20 103 29 100 3 -2 12 -3 20 -3 8 0 18 -10 21 -21 6 -17 9 -19 16 -8 7 10 0 22 -23 41 -26 23 -30 30 -19 40 10 11 20 5 50 -29 30 -34 42 -40 64 -36 39 8 44 23 8 23 -17 0 -31 -5 -31 -12 0 -6 -6 -3 -14 8 -13 17 -12 23 5 52 10 18 19 35 19 37 0 10 -43 -11 -54 -27 -22 -31 -29 -3 -12 50 35 112 31 135 -36 208 -77 84 -185 113 -310 83z m106 -36 c-1 -16 -2 -40 -3 -55 -1 -27 -1 -27 -78 -27 -43 0 -94 -5 -113 -11 -19 -5 -48 -10 -64 -10 l-29 0 39 35 c48 44 109 74 171 85 79 13 79 13 77 -17z m151 -23 c25 -17 53 -43 63 -58 20 -30 25 -98 10 -127 -10 -18 -14 -15 -56 30 -25 28 -41 43 -36 35 5 -9 1 -7 -8 3 -10 11 -18 16 -18 13 0 -3 -9 3 -20 14 -11 11 -27 21 -35 21 -8 1 -21 2 -27 3 -14 2 -13 22 4 75 10 31 13 33 44 28 18 -3 54 -20 79 -37z m-2 -264 c6 -16 -1 -26 -17 -26 -6 0 -5 4 2 9 11 7 11 9 -2 14 -9 4 -16 1 -16 -5 0 -6 -3 -9 -6 -5 -9 8 5 27 21 27 7 0 15 -6 18 -14z m-322 -296 c24 -14 24 -22 -1 -38 -18 -11 -22 -10 -29 10 -14 36 -4 45 30 28z"></path><path d="M2222 1496 l-24 -13 26 -16 c31 -21 56 -22 56 -2 0 8 8 15 17 15 15 0 14 2 -3 15 -23 18 -42 18 -72 1z m38 -6 c-10 -6 -11 -10 -2 -10 6 0 12 -4 12 -10 0 -5 -7 -10 -15 -10 -8 0 -15 6 -15 13 0 17 10 27 24 27 6 0 4 -5 -4 -10z"></path><path d="M2606 1584 c5 -27 4 -35 -5 -30 -6 4 -12 19 -12 34 -1 16 -3 20 -6 10 -2 -9 -10 -15 -16 -12 -7 2 -21 -2 -32 -10 -15 -12 -16 -15 -5 -16 9 0 33 -12 54 -26 l38 -26 -7 -62 c-3 -33 -9 -74 -11 -91 -4 -26 -3 -27 5 -8 5 12 13 50 17 84 l7 63 29 -34 c37 -45 71 -136 66 -178 -3 -25 -1 -31 10 -27 7 3 22 5 32 5 15 0 19 11 25 58 7 61 -10 215 -27 242 -6 10 -7 2 -3 -23 8 -52 -5 -252 -16 -235 -5 7 -9 24 -9 38 -1 35 -35 107 -75 156 -21 25 -37 58 -41 83 -4 22 -11 41 -16 41 -5 0 -6 -16 -2 -36z"></path><path d="M180 1583 c-21 -42 -26 -301 -7 -399 8 -44 15 -90 15 -104 0 -14 9 -58 20 -99 12 -41 19 -78 16 -83 -3 -4 -1 -8 3 -8 5 0 19 -19 32 -43 22 -40 23 -47 10 -83 -7 -21 -13 -75 -13 -119 -1 -83 17 -138 63 -195 l20 -25 24 23 25 24 -44 40 c-56 51 -79 111 -69 176 4 26 8 57 9 70 1 29 12 28 32 -3 9 -14 26 -31 38 -37 18 -10 17 -6 -7 23 -26 32 -107 180 -107 196 0 4 7 -2 15 -13 19 -25 19 -18 -4 42 -18 47 -61 226 -77 319 -10 63 11 29 26 -40 14 -67 36 -114 25 -55 -17 94 -29 225 -30 318 0 56 0 102 -1 102 0 0 -7 -12 -14 -27z"></path><path d="M2450 1545 c-13 -14 -28 -24 -34 -23 -19 3 -56 -13 -56 -25 0 -8 3 -8 12 1 17 17 33 15 19 -2 -9 -11 -5 -16 19 -26 52 -22 55 -36 10 -54 -43 -17 -54 -28 -18 -18 14 3 19 2 14 -6 -4 -7 -2 -12 5 -12 6 0 1 -8 -11 -18 -14 -11 -19 -23 -14 -35 10 -28 27 -15 41 32 7 24 18 50 25 58 7 9 11 26 10 39 -2 12 1 39 7 58 6 24 6 36 0 36 -6 0 -7 5 -4 10 11 18 -1 11 -25 -15z m12 -7 c-7 -7 -12 -19 -12 -27 0 -27 -16 -42 -34 -35 -15 6 -13 11 15 40 18 19 35 34 38 34 3 0 0 -5 -7 -12z"></path><path d="M660 1516 c0 -14 10 -30 26 -41 30 -20 26 -32 -6 -15 -19 10 -21 9 -17 -7 3 -10 8 -43 12 -73 4 -42 14 -64 38 -93 l32 -38 2 35 c2 26 -2 36 -15 39 -14 4 -14 5 3 6 11 1 28 13 38 26 22 31 12 33 -13 3 l-18 -23 -12 45 c-7 25 -12 61 -11 81 0 26 -6 41 -24 57 -32 28 -35 27 -35 -2z"></path><path d="M1572 1524 c-12 -8 -27 -12 -32 -9 -6 3 -10 2 -10 -3 0 -8 22 -22 35 -22 1 0 10 11 19 25 19 29 18 30 -12 9z"></path><path d="M263 1408 c7 -120 40 -258 91 -378 l36 -85 65 9 64 10 -43 46 c-23 25 -51 58 -60 73 -14 20 -26 27 -51 27 -31 0 -34 3 -46 53 -16 62 -17 250 -1 289 10 25 9 29 -18 43 -16 8 -32 15 -36 15 -4 0 -4 -46 -1 -102z m141 -358 c30 -45 37 -81 18 -87 -12 -5 -62 87 -62 115 0 23 17 12 44 -28z"></path><path d="M1579 1494 c-9 -12 -8 -19 9 -37 12 -12 31 -44 43 -72 19 -44 21 -60 15 -147 -5 -88 -4 -99 11 -105 10 -3 30 -19 45 -35 15 -15 33 -28 40 -27 7 0 3 5 -9 11 -20 10 -36 53 -37 102 -1 10 -10 22 -21 27 -19 7 -18 8 4 8 18 1 22 5 18 21 -3 11 -1 22 4 25 17 11 -3 36 -25 30 -11 -2 -15 -2 -8 1 6 3 9 11 5 17 -8 12 -9 16 -15 55 -3 12 -10 28 -16 34 -8 8 -9 15 0 25 9 11 7 12 -7 7 -14 -6 -16 -4 -10 6 5 9 4 11 -3 6 -8 -5 -12 0 -12 13 0 12 5 22 10 22 19 3 25 5 43 15 15 8 9 11 -27 11 -28 1 -50 -5 -57 -13z"></path><path d="M1040 1486 c0 -7 -14 -28 -30 -46 -30 -34 -31 -34 -75 -22 -58 15 -67 15 -91 -3 -18 -14 -17 -14 9 -5 25 9 117 -4 117 -16 0 -2 -9 -18 -20 -36 -11 -18 -20 -40 -20 -49 0 -9 -7 -22 -15 -29 -18 -15 -19 -7 -4 23 6 12 -1 8 -16 -10 -32 -40 -42 -41 -48 -5 -2 15 -5 3 -6 -26 0 -29 -6 -63 -12 -74 -9 -17 -7 -25 15 -46 30 -31 45 -25 16 6 -18 19 -18 21 -2 25 16 4 16 5 -1 6 -14 1 -16 7 -11 29 8 33 38 67 53 58 12 -8 3 -68 -13 -78 -7 -5 -5 -8 6 -8 9 0 18 -4 20 -10 2 -5 4 16 5 47 2 31 7 61 13 67 5 5 10 18 10 29 0 10 4 16 9 13 7 -5 25 22 21 32 0 1 6 9 14 17 8 8 16 18 18 23 1 4 16 17 32 30 16 12 23 22 16 22 -9 0 -8 6 4 19 15 16 15 19 1 24 -9 4 -15 1 -15 -7z"></path><path d="M1274 1480 c-6 -6 -21 -12 -34 -15 -28 -5 -39 -15 -17 -15 8 0 24 -3 34 -6 15 -5 15 -4 3 5 -8 6 -10 11 -4 11 14 0 52 29 39 30 -6 0 -16 -5 -21 -10z"></path><path d="M370 1469 c24 -16 90 -50 90 -46 0 9 -77 57 -91 57 -12 0 -12 -2 1 -11z"></path><path d="M369 1436 c13 -15 124 -76 138 -76 11 0 -129 89 -141 90 -5 0 -3 -6 3 -14z"></path><path d="M778 1420 c-3 -19 1 -31 10 -35 34 -13 45 32 13 52 -17 10 -19 9 -23 -17z"></path><path d="M1294 1435 c1 -8 8 -21 16 -28 11 -9 11 -8 0 7 -14 18 -13 19 3 13 23 -9 22 0 -2 13 -15 8 -19 7 -17 -5z"></path><path d="M2020 1428 c0 -20 1 -21 13 -4 9 13 20 16 40 11 30 -8 47 -31 48 -67 0 -21 1 -21 8 -4 6 17 9 15 20 -12 15 -36 32 -40 52 -14 13 15 12 16 -3 4 -15 -12 -19 -9 -38 27 -11 23 -25 41 -31 41 -6 0 -7 5 -4 10 3 6 1 10 -5 10 -6 0 -9 3 -7 8 3 4 -17 8 -44 10 -45 2 -49 1 -49 -20z"></path><path d="M1838 1400 c2 -17 1 -38 -3 -47 -5 -10 -7 -27 -6 -38 2 -20 1 -20 -14 -1 -13 18 -13 22 1 45 l16 26 -22 -22 c-22 -21 -23 -23 -6 -48 9 -14 14 -31 10 -38 -4 -7 2 -4 14 7 16 14 19 23 12 36 -7 12 -6 21 4 29 13 11 10 67 -3 76 -4 2 -5 -9 -3 -25z"></path><path d="M1190 1411 c0 -6 -7 -11 -17 -11 -9 0 -13 -3 -10 -7 4 -3 1 -13 -6 -22 -11 -14 -10 -15 8 -1 38 28 46 38 35 45 -5 3 -10 1 -10 -4z"></path><path d="M2043 1408 c-25 -32 -23 -38 18 -58 24 -11 45 -18 47 -15 3 2 -3 7 -12 11 -12 5 -14 10 -5 20 6 7 8 22 4 34 -7 22 -37 27 -52 8z m42 -8 c8 -13 -14 -42 -26 -34 -5 3 -9 14 -9 25 0 20 24 26 35 9z"></path><path d="M1391 1388 c-1 -21 7 -22 29 -7 13 9 13 10 -2 6 -9 -3 -19 -1 -22 6 -2 7 -5 4 -5 -5z"></path><path d="M1445 1383 c3 -3 0 -12 -6 -20 -9 -10 -8 -13 4 -13 15 0 18 24 4 35 -4 3 -5 2 -2 -2z"></path><path d="M600 1367 c0 -8 7 -18 16 -21 11 -4 14 -1 12 11 -4 21 -28 30 -28 10z"></path><path d="M1080 1353 c5 -2 10 -11 10 -19 0 -9 -4 -12 -10 -9 -5 3 -10 -3 -10 -15 0 -12 4 -19 9 -16 5 4 12 0 15 -6 3 -7 3 -2 0 11 -4 16 -2 21 5 17 7 -5 8 0 2 15 -4 13 -13 24 -20 25 -6 1 -7 0 -1 -3z"></path><path d="M1935 1340 c85 -21 90 -22 80 -11 -5 5 -35 12 -65 15 -51 5 -52 5 -15 -4z"></path><path d="M1150 1320 c4 -8 9 -19 10 -25 1 -5 3 -12 5 -14 2 -2 2 8 -1 22 -3 18 1 27 13 30 10 3 6 4 -9 4 -21 -1 -25 -5 -18 -17z"></path><path d="M1348 1324 c-9 -8 3 -44 13 -38 11 7 12 44 1 44 -5 0 -11 -3 -14 -6z"></path><path d="M2480 1322 c0 -5 -13 -29 -29 -53 -17 -24 -28 -45 -27 -47 2 -2 16 0 30 4 21 5 24 9 15 20 -8 10 -7 17 5 29 15 15 23 55 11 55 -3 0 -5 -4 -5 -8z"></path><path d="M330 1269 c0 -24 3 -68 6 -96 7 -51 8 -53 37 -53 24 0 27 3 18 14 -6 7 -20 48 -31 91 -11 43 -22 81 -25 83 -3 3 -5 -15 -5 -39z"></path><path d="M979 1300 c-3 -8 0 -28 7 -45 9 -22 13 -24 13 -10 -1 36 -14 72 -20 55z"></path><path d="M1450 1287 c0 -8 6 -20 14 -26 12 -10 13 -8 9 9 -7 25 -23 37 -23 17z"></path><path d="M2857 1256 c-8 -57 -48 -145 -92 -206 -19 -26 -35 -52 -35 -58 0 -15 -30 -43 -39 -37 -5 2 -11 23 -15 45 -5 33 -2 47 21 81 29 45 42 38 24 -13 -6 -17 -9 -33 -6 -36 7 -7 31 54 54 137 l20 71 -35 0 c-30 0 -34 -3 -34 -27 0 -16 -18 -63 -39 -105 -34 -70 -37 -82 -31 -125 9 -56 14 -158 12 -225 -2 -35 -6 -46 -15 -42 -9 3 -13 -2 -11 -18 1 -13 3 -32 3 -42 3 -63 41 70 41 142 0 21 5 43 12 50 7 7 8 12 2 12 -5 0 -10 10 -11 22 -1 13 19 44 55 84 79 86 123 176 130 265 5 77 -2 93 -11 25z"></path><path d="M440 1285 c0 -2 19 -9 43 -15 82 -21 84 -22 57 -7 -24 14 -100 30 -100 22z"></path><path d="M1908 1283 c-55 -8 -27 -18 42 -15 38 2 70 8 70 13 0 9 -59 10 -112 2z"></path><path d="M425 1263 c14 -15 75 -34 75 -24 0 5 -11 12 -24 15 -13 3 -32 9 -43 12 -12 5 -15 4 -8 -3z"></path><path d="M2490 1250 c0 -6 7 -13 15 -17 24 -9 27 1 5 15 -13 8 -20 8 -20 2z"></path><path d="M2580 1250 c-12 -8 -10 -10 10 -9 14 0 34 4 45 9 17 7 16 9 -10 9 -16 0 -37 -4 -45 -9z"></path><path d="M510 1236 c0 -7 106 -36 127 -35 10 0 -11 9 -47 19 -69 20 -80 23 -80 16z"></path><path d="M1931 1215 c-30 -14 -51 -28 -48 -32 4 -3 14 0 22 7 9 7 39 21 68 31 29 10 43 18 32 18 -11 1 -44 -10 -74 -24z"></path><path d="M2150 1218 c0 -12 3 -17 8 -12 4 5 11 12 15 15 5 3 2 9 -7 12 -12 5 -16 0 -16 -15z"></path><path d="M2201 1221 c-14 -10 -19 -21 -13 -24 9 -6 20 3 36 31 10 16 6 15 -23 -7z"></path><path d="M1036 1204 c-4 -14 -5 -28 -3 -31 3 -2 8 8 11 23 4 14 5 28 3 31 -3 2 -8 -8 -11 -23z"></path><path d="M2558 1223 l-38 -4 19 -27 c10 -15 35 -53 55 -84 20 -32 39 -58 41 -58 9 0 -20 67 -42 96 -12 17 -20 34 -16 37 3 4 -1 7 -11 7 -9 0 -14 5 -11 10 3 6 24 10 46 10 21 0 39 5 39 10 0 10 -10 10 -82 3z"></path><path d="M780 1201 c11 -22 30 -29 30 -11 0 5 -9 14 -21 20 -19 11 -20 10 -9 -9z"></path><path d="M2013 1180 c-28 -22 -55 -49 -58 -61 -8 -25 17 -56 62 -75 55 -24 61 -15 7 10 -28 13 -54 32 -58 41 -11 30 2 29 38 -3 19 -16 48 -33 65 -37 17 -4 29 -11 25 -16 -3 -5 -3 -9 0 -9 3 0 25 27 51 60 l46 59 -53 36 c-29 19 -57 35 -63 35 -5 0 -33 -18 -62 -40z m119 -1 c26 -17 45 -35 42 -40 -5 -9 -19 -3 -61 27 l-23 16 15 -35 c17 -42 20 -83 5 -92 -6 -4 -10 9 -10 32 0 21 -9 56 -20 78 -11 22 -20 41 -20 42 0 10 30 -1 72 -28z m-67 -24 c17 -16 25 -35 25 -60 l0 -35 -42 26 c-71 44 -71 44 -47 71 28 29 34 29 64 -2z"></path><path d="M2480 1213 c0 -4 23 -53 51 -109 33 -68 49 -112 47 -131 -2 -16 3 -33 12 -40 13 -10 11 -12 -11 -13 -15 0 -32 -6 -38 -14 -10 -11 -4 -15 31 -18 24 -3 44 -4 46 -3 1 1 -6 38 -17 81 -20 83 -95 254 -111 254 -6 0 -10 -3 -10 -7z"></path><path d="M1065 1188 c3 -13 7 -29 7 -36 1 -7 5 -9 10 -4 5 5 4 20 -1 35 -13 33 -26 36 -16 5z"></path><path d="M1390 1176 c0 -31 6 -34 13 -6 3 11 1 23 -4 26 -5 3 -9 -6 -9 -20z"></path><path d="M1437 1162 l-18 -37 20 25 c12 14 21 31 21 38 0 19 -4 15 -23 -26z"></path><path d="M2411 1168 c0 -7 4 -22 8 -33 7 -17 9 -15 13 13 3 22 1 32 -9 32 -7 0 -13 -6 -12 -12z"></path><path d="M960 1148 c0 -7 5 -20 10 -28 8 -12 10 -9 10 13 0 15 -4 27 -10 27 -5 0 -10 -6 -10 -12z"></path><path d="M2393 1143 c9 -15 -25 -43 -56 -45 -33 -3 -26 -10 13 -13 16 -2 33 2 38 9 17 21 21 45 10 52 -6 4 -8 3 -5 -3z"></path><path d="M2301 1120 c-31 -26 -17 -26 16 0 14 11 22 20 17 20 -5 -1 -20 -10 -33 -20z"></path><path d="M570 1100 c0 -5 17 -10 38 -9 33 1 34 2 12 9 -36 11 -50 11 -50 0z"></path><path d="M800 1098 c0 -6 3 -9 6 -5 10 9 82 -33 104 -60 26 -33 26 -87 0 -113 -11 -11 -16 -20 -11 -20 15 0 41 42 41 67 0 30 8 29 42 -4 15 -14 30 -24 34 -21 10 10 -18 44 -47 57 -15 7 -31 21 -34 32 -6 19 -98 79 -122 79 -7 0 -13 -5 -13 -12z"></path><path d="M1070 1091 c0 -12 5 -21 10 -21 6 0 10 6 10 14 0 8 -4 18 -10 21 -5 3 -10 -3 -10 -14z"></path><path d="M2396 1088 c-11 -10 -29 -18 -40 -19 -12 0 -15 -3 -8 -6 17 -7 -15 -32 -43 -34 -17 -1 -16 -2 5 -9 22 -7 21 -8 -12 -9 -23 -1 -46 -9 -57 -20 -19 -19 -18 -19 31 -23 49 -3 51 -2 68 32 10 19 28 45 40 58 l21 22 29 -32 c17 -18 30 -27 30 -21 0 7 -9 18 -19 25 -10 8 -21 23 -23 34 -3 20 -4 20 -22 2z"></path><path d="M1580 1090 c-11 -8 -7 -9 15 -4 37 8 45 14 19 14 -10 0 -26 -5 -34 -10z"></path><path d="M1026 1065 c-3 -9 -2 -13 4 -10 5 3 16 -7 24 -22 8 -15 15 -23 16 -18 0 6 -8 23 -19 38 -15 23 -19 25 -25 12z"></path><path d="M1417 1054 c-10 -13 -14 -24 -9 -24 13 0 35 27 30 39 -1 5 -11 -2 -21 -15z"></path><path d="M1617 1063 c-4 -3 -7 -25 -7 -47 0 -23 -4 -48 -10 -56 -5 -9 -5 -19 2 -27 8 -10 5 -13 -13 -13 -30 0 -43 9 -58 37 -11 22 -12 22 -47 -17 -25 -27 -34 -46 -31 -62 4 -20 4 -20 6 5 0 15 5 27 9 27 4 0 15 -12 25 -27 21 -35 63 -81 101 -111 28 -21 30 -22 49 -5 14 12 11 5 -7 -19 -15 -20 -27 -40 -25 -43 1 -4 -8 -24 -20 -45 -25 -44 -90 -89 -178 -120 -58 -21 -80 -40 -67 -61 3 -5 -2 -9 -11 -9 -9 0 -14 4 -11 9 13 21 -24 17 -56 -5 -19 -14 -61 -36 -93 -49 -36 -14 -62 -32 -67 -44 -6 -17 0 -24 39 -41 45 -20 147 -52 206 -64 25 -6 27 -4 27 22 0 16 3 49 6 74 l6 44 -42 13 c-23 7 -45 10 -48 7 -3 -3 -1 -6 5 -6 24 0 63 -47 63 -75 0 -51 -8 -54 -82 -35 -83 21 -138 47 -138 63 0 7 21 19 48 26 26 8 53 19 61 25 7 5 38 10 69 10 43 0 61 5 79 22 17 15 35 22 59 21 36 -2 48 -17 14 -17 -13 0 -20 -7 -20 -20 0 -13 7 -20 19 -20 11 0 26 -3 35 -6 12 -5 16 0 16 18 0 29 -30 67 -47 61 -14 -5 -29 24 -19 35 4 3 12 0 17 -8 9 -13 10 -12 6 2 -3 9 1 22 9 28 11 10 14 8 14 -13 0 -13 8 -31 18 -38 14 -11 15 -11 5 1 -17 18 -16 55 0 69 16 13 27 5 27 -20 0 -10 3 -20 8 -22 4 -3 7 8 7 23 0 15 -3 26 -7 23 -15 -8 -8 7 22 49 16 24 31 52 33 63 6 40 15 45 59 29 22 -7 74 -14 115 -14 64 0 74 2 69 16 -3 9 -6 18 -6 20 0 2 -25 4 -56 4 -34 0 -74 8 -104 21 l-49 21 62 51 c75 62 81 69 62 83 -8 6 -12 14 -9 17 4 3 -9 15 -27 26 l-34 21 -12 -25 c-15 -27 -44 -39 -73 -30 -16 5 -18 10 -10 25 6 10 10 37 10 60 0 34 3 41 18 38 21 -4 29 -66 12 -100 -11 -22 -10 -22 4 -4 21 27 21 102 0 110 -20 8 -29 8 -37 -1z m127 -108 c11 -8 14 -15 7 -15 -7 0 -9 -4 -6 -10 4 -6 -1 -7 -11 -3 -12 5 -15 3 -9 -6 6 -10 3 -11 -14 -2 -24 13 -28 23 -6 15 10 -4 13 0 10 15 -5 25 3 26 29 6z m-135 -41 c23 3 46 8 50 10 4 3 23 -8 42 -24 28 -25 31 -31 19 -39 -9 -5 -28 -21 -43 -35 -15 -14 -30 -26 -33 -26 -14 0 -81 59 -106 94 -36 50 -36 62 1 35 23 -17 37 -20 70 -15z m-54 -62 c4 1 24 -17 44 -42 19 -25 26 -37 15 -27 -11 9 -23 14 -26 11 -7 -6 -58 58 -58 72 0 5 4 3 9 -4 4 -8 12 -12 16 -10z m-165 -385 c0 -20 -25 1 -28 24 -2 23 -2 23 13 5 8 -11 15 -24 15 -29z"></path><path d="M1750 1050 c0 -6 11 -15 25 -20 14 -5 25 -13 25 -18 0 -5 11 -14 26 -20 21 -10 24 -10 17 3 -10 16 -73 65 -85 65 -4 0 -8 -5 -8 -10z"></path><path d="M2377 1034 c-7 -7 2 -55 12 -65 3 -4 35 -10 71 -14 46 -4 61 -3 50 4 -8 6 -39 11 -68 11 -50 0 -52 1 -40 20 10 16 19 19 47 14 23 -5 32 -3 27 4 -3 6 -27 9 -52 8 -34 -2 -44 1 -40 11 6 14 3 17 -7 7z"></path><path d="M645 990 c-4 -6 6 -7 27 -3 44 8 48 13 10 13 -17 0 -34 -4 -37 -10z"></path><path d="M1329 968 c-7 -26 -6 -48 3 -54 7 -4 8 -3 4 4 -4 7 -2 12 3 12 6 0 11 9 11 20 0 11 -4 20 -10 20 -5 0 -10 -1 -11 -2z"></path><path d="M1376 954 c-9 -24 -7 -31 5 -11 6 9 15 14 21 11 7 -4 8 -2 4 4 -10 17 -23 15 -30 -4z"></path><path d="M451 939 c-56 -11 -59 -15 -24 -31 22 -11 41 -12 93 -3 l65 11 -25 17 c-27 18 -42 19 -109 6z"></path><path d="M2203 943 c4 -3 24 -10 44 -14 34 -7 33 -8 -14 -5 -42 2 -50 1 -37 -9 15 -10 15 -13 -1 -28 -9 -9 -26 -17 -38 -17 -17 -1 -15 -4 12 -15 18 -8 37 -15 41 -15 4 0 29 25 55 55 l47 55 -58 0 c-31 0 -54 -3 -51 -7z"></path><path d="M1290 925 c-10 -12 -10 -15 4 -15 9 0 16 7 16 15 0 8 -2 15 -4 15 -2 0 -9 -7 -16 -15z"></path><path d="M2405 929 c22 -4 58 -8 80 -7 l40 0 -40 9 c-22 4 -58 8 -80 7 l-40 0 40 -9z"></path><path d="M965 904 c-27 -7 -62 -14 -77 -14 -15 0 -30 -5 -34 -12 -5 -8 -2 -9 9 -5 10 3 17 2 17 -4 0 -6 4 -8 9 -4 5 3 13 1 16 -5 5 -7 11 -8 19 -1 7 6 27 2 61 -14 l49 -24 42 24 c26 15 44 21 50 15 17 -17 160 -25 169 -10 5 9 4 11 -3 6 -7 -4 -18 -4 -24 1 -12 7 -56 13 -101 14 -9 0 -15 5 -11 10 3 5 2 8 -3 7 -4 -1 -19 3 -33 10 -22 12 -23 12 -7 -1 13 -11 14 -16 4 -20 -15 -6 -72 16 -81 32 -8 13 -7 13 -71 -5z"></path><path d="M530 896 c-59 -13 -58 -20 5 -31 38 -7 39 -6 20 8 -18 14 -15 14 30 0 51 -16 64 -17 148 -10 49 4 80 18 36 16 -26 -1 -145 15 -169 23 -8 3 -40 0 -70 -6z"></path><path d="M420 887 c0 -16 49 -83 89 -121 l40 -39 105 -1 c86 -1 107 2 123 17 24 21 40 23 23 2 -17 -20 -15 -20 92 16 101 34 144 54 93 44 -55 -11 -70 -11 -86 -4 -8 4 -22 3 -30 -2 -12 -7 -12 -9 1 -10 25 -1 -43 -21 -71 -20 -14 1 -39 -9 -55 -21 -18 -14 -24 -16 -15 -5 13 16 7 17 -78 17 -86 0 -150 16 -151 38 -1 10 -80 99 -80 89z"></path><path d="M1399 875 c-15 -8 -41 -39 -58 -70 -34 -59 -37 -70 -20 -59 9 5 10 -9 7 -49 -2 -31 -1 -54 4 -51 4 3 9 31 9 62 1 51 2 53 9 22 l7 -35 2 35 c2 29 4 32 11 15 9 -20 9 -20 9 0 1 12 10 37 20 58 17 34 35 88 29 87 -2 -1 -15 -7 -29 -15z"></path><path d="M2473 846 l-42 -34 31 -11 c27 -10 38 -7 86 19 31 17 59 30 64 30 4 0 8 -17 9 -37 1 -21 5 -49 10 -63 6 -17 7 -2 3 45 -3 38 -6 70 -8 72 -1 1 -27 5 -57 8 -50 4 -57 2 -96 -29z"></path><path d="M787 859 c-10 -6 -25 -8 -34 -5 -16 7 -183 -54 -183 -66 0 -7 21 1 118 39 7 3 18 0 25 -5 25 -21 109 -34 134 -21 13 7 23 16 23 20 0 14 -33 19 -49 7 -15 -12 -15 -11 -1 6 14 18 13 19 -8 14 -19 -5 -21 -4 -11 8 14 17 11 17 -14 3z"></path><path d="M1772 847 c-24 -13 -40 -26 -36 -29 8 -9 84 29 84 42 0 12 3 13 -48 -13z"></path><path d="M1252 778 c-90 -92 -94 -96 -57 -73 40 25 105 86 105 98 0 6 7 19 17 29 9 10 14 18 12 18 -3 0 -37 -33 -77 -72z"></path><path d="M1441 837 c0 -10 -7 -20 -15 -23 -13 -5 -13 -12 -1 -52 8 -25 12 -49 9 -54 -3 -5 0 -15 6 -23 7 -9 16 -30 19 -48 8 -39 49 -52 58 -18 3 12 9 21 14 21 4 0 20 22 36 49 15 27 31 47 35 45 4 -3 8 -1 8 4 0 6 -7 13 -16 16 -8 3 -12 2 -9 -4 4 -6 -8 -11 -27 -11 -30 -2 -31 -2 -5 -6 33 -5 26 -23 -9 -23 -33 0 -81 25 -94 49 -17 32 -12 34 21 7 17 -14 35 -26 41 -26 6 0 -4 10 -23 23 -24 16 -36 33 -40 57 -4 19 -7 27 -8 17z m78 -168 l-34 -6 30 -2 c23 -1 27 -4 14 -11 -24 -14 -59 0 -70 27 -15 40 -11 42 42 20 l52 -22 -34 -6z"></path><path d="M2136 836 c6 -16 -19 -22 -70 -17 -26 2 -8 -18 37 -43 l35 -18 30 33 c31 35 30 40 -15 53 -18 6 -22 4 -17 -8z"></path><path d="M1803 813 c-41 -16 -43 -24 -4 -13 21 6 31 5 34 -3 2 -7 8 -9 12 -5 4 3 3 13 -2 21 -7 12 -13 12 -40 0z"></path><path d="M2305 804 c22 -8 53 -20 68 -28 22 -10 37 -11 64 -3 33 10 34 11 12 19 -13 5 -35 6 -49 3 -14 -3 -42 1 -63 10 -20 8 -44 15 -54 14 -10 0 0 -7 22 -15z"></path><path d="M1012 734 c-29 -35 -50 -64 -48 -64 7 0 109 121 105 125 -2 2 -28 -25 -57 -61z"></path><path d="M1695 790 c-3 -5 1 -10 9 -10 8 0 18 5 21 10 3 6 -1 10 -9 10 -8 0 -18 -4 -21 -10z"></path><path d="M2275 786 c11 -8 26 -16 33 -16 6 0 12 -4 12 -10 0 -5 8 -10 18 -10 9 -1 34 -7 55 -14 70 -25 37 -1 -40 29 -102 40 -101 40 -78 21z"></path><path d="M2535 746 c17 -7 32 -11 35 -9 8 7 -24 23 -45 22 -15 0 -13 -3 10 -13z"></path><path d="M310 721 c0 -7 36 -49 80 -92 76 -74 79 -79 60 -91 -11 -7 -20 -17 -20 -21 0 -5 12 1 26 12 15 12 32 21 38 21 6 0 2 -7 -8 -15 -11 -8 -18 -16 -15 -18 17 -13 138 -60 179 -70 83 -20 58 -34 -50 -28 -54 3 -160 29 -177 43 -9 7 -21 3 -42 -14 -17 -12 -30 -25 -30 -28 -1 -9 83 -56 125 -71 25 -9 83 -14 159 -14 109 0 128 3 216 33 53 18 104 39 115 46 16 12 25 10 69 -15 60 -33 65 -35 65 -13 0 11 -6 14 -20 9 -30 -9 -24 2 9 20 19 9 34 28 41 52 7 21 26 67 41 102 l29 64 -58 -55 c-85 -81 -228 -147 -321 -148 -31 -1 -41 -7 -69 -46 -19 -25 -36 -43 -40 -40 -3 3 9 24 27 46 l32 39 -28 6 c-48 11 -116 36 -162 61 -24 13 -53 24 -65 24 -17 0 -18 2 -6 10 13 8 11 12 -10 27 -14 9 -62 53 -107 97 -46 44 -83 74 -83 67z m800 -230 c0 -22 -20 -59 -35 -65 -18 -6 -55 9 -55 23 0 11 61 51 78 51 6 0 12 -4 12 -9z m-668 -62 c33 -18 169 -36 213 -28 54 9 70 0 49 -30 -14 -20 -23 -22 -87 -20 -101 3 -227 46 -227 76 0 16 24 17 52 2z"></path><path d="M2316 689 c-28 -10 -99 -33 -158 -50 -95 -28 -106 -33 -91 -45 26 -19 38 -17 22 4 -13 15 -12 16 4 3 20 -16 69 -1 225 69 89 40 87 53 -2 19z"></path><path d="M575 690 c12 -19 109 -85 155 -105 34 -16 66 -20 140 -20 88 1 100 3 170 37 76 37 129 73 120 81 -3 3 -39 -14 -80 -38 -41 -24 -77 -42 -81 -39 -4 2 -10 0 -14 -6 -3 -5 -11 -10 -17 -10 -6 0 -5 7 3 17 10 13 6 12 -13 -3 -40 -31 -173 -28 -243 6 -27 14 -54 30 -60 36 -13 15 -71 54 -80 54 -3 0 -3 -5 0 -10z"></path><path d="M1311 682 c-1 -7 -5 -11 -10 -7 -10 5 -55 -84 -47 -92 8 -8 67 88 63 100 -4 9 -6 9 -6 -1z"></path><path d="M1243 665 c-7 -8 -25 -40 -39 -72 -14 -32 -37 -82 -50 -111 l-24 -52 29 14 c17 9 32 27 36 43 3 15 23 61 42 101 32 68 35 110 6 77z"></path><path d="M1713 643 c21 -9 36 -21 34 -27 -2 -6 -32 -28 -68 -48 -70 -41 -73 -51 -6 -17 50 25 87 57 87 76 0 15 -41 34 -68 32 -9 -1 0 -8 21 -16z"></path><path d="M1812 610 c-29 -21 -53 -42 -53 -47 0 -4 5 -28 11 -53 l12 -45 15 28 c11 22 12 35 4 59 -15 43 -13 48 6 14 13 -25 17 -27 25 -13 5 11 5 24 -2 36 -7 13 -7 22 0 26 5 3 10 1 10 -4 0 -6 5 -11 11 -11 5 0 7 5 4 10 -4 6 -1 17 5 25 18 22 10 18 -48 -25z"></path><path d="M2381 616 c2 -2 15 -9 29 -16 23 -12 24 -12 11 3 -7 10 -20 17 -29 17 -8 0 -13 -2 -11 -4z"></path><path d="M2150 580 c-40 -13 -50 -19 -38 -25 10 -4 38 3 70 18 62 29 47 33 -32 7z"></path><path d="M2509 576 c7 -8 8 -16 4 -18 -4 -3 -2 -3 6 -1 8 2 40 -10 72 -27 37 -19 56 -25 53 -16 -3 8 -13 16 -22 19 -9 3 -41 17 -71 31 -30 15 -48 20 -42 12z"></path><path d="M1700 535 c-19 -14 -30 -25 -24 -25 5 0 16 6 23 13 10 10 11 9 5 -6 -8 -23 -49 -32 -80 -19 -25 12 -58 6 -48 -9 3 -5 -2 -6 -10 -3 -13 5 -16 -1 -16 -30 0 -24 4 -34 13 -31 6 2 56 9 110 16 53 7 97 14 97 16 0 6 -32 103 -34 103 0 -1 -17 -12 -36 -25z m-91 -62 c0 -25 -1 -26 -9 -8 -12 27 -12 35 0 35 6 0 10 -12 9 -27z"></path><path d="M2205 524 c36 -28 61 -36 30 -10 -16 14 -34 25 -40 25 -5 0 -1 -7 10 -15z"></path><path d="M2584 512 c14 -23 -284 -135 -429 -163 -38 -7 -62 -15 -51 -17 37 -8 221 20 282 43 71 27 168 79 197 105 18 18 21 17 75 -13 32 -17 51 -23 44 -15 -7 9 -9 18 -5 20 4 3 2 3 -5 1 -7 -1 -36 9 -64 23 -27 14 -47 21 -44 16z"></path><path d="M1216 494 c-10 -25 -1 -27 19 -4 15 17 16 20 3 20 -9 0 -19 -7 -22 -16z"></path><path d="M2221 476 c2 -2 15 -9 29 -16 23 -12 24 -12 11 3 -7 10 -20 17 -29 17 -8 0 -13 -2 -11 -4z"></path><path d="M1423 463 c-21 -8 -15 -33 7 -33 13 0 20 7 20 20 0 20 -5 23 -27 13z"></path><path d="M1704 389 c-28 -29 -31 -30 -88 -24 l-58 7 4 -41 c2 -22 0 -41 -4 -41 -5 0 -8 10 -8 23 0 53 -10 64 -63 75 -29 6 -59 13 -68 17 -14 5 -17 -5 -22 -62 -3 -44 -1 -70 6 -75 6 -3 37 -9 68 -13 50 -6 64 -3 108 18 81 41 157 102 157 126 0 11 -1 21 -1 21 -1 0 -14 -14 -31 -31z m-201 -34 c31 -8 46 -47 27 -70 -14 -17 -57 -19 -95 -5 -22 8 -26 15 -23 42 2 25 8 34 26 36 12 2 22 9 22 15 0 9 2 9 8 0 4 -6 20 -15 35 -18z m130 -32 c-13 -2 -33 -2 -45 0 -13 2 -3 4 22 4 25 0 35 -2 23 -4z"></path><path d="M1864 319 c-10 -18 -111 -59 -204 -85 -88 -25 -223 -33 -235 -14 -3 6 -18 10 -33 10 -22 -1 -18 -5 23 -21 77 -31 157 -26 301 19 101 31 126 43 149 70 15 18 22 32 16 32 -5 0 -13 -5 -17 -11z"></path></g></svg>